<svg xmlns="http://www.w3.org/2000/svg" viewBox="0 0 42 42"><rect width="42" height="42" fill="#18231d"/><g fill="#eef0e7"><rect x="7" y="7" width="4" height="4"/><rect x="11" y="7" width="4" height="4"/><rect x="27" y="7" width="4" height="4"/><rect x="31" y="7" width="4" height="4"/><rect x="7" y="11" width="4" height="4"/><rect x="11" y="11" width="4" height="4"/><rect x="15" y="11" width="4" height="4"/><rect x="23" y="11" width="4" height="4"/><rect x="27" y="11" width="4" height="4"/><rect x="31" y="11" width="4" height="4"/><rect x="7" y="15" width="4" height="4"/><rect x="11" y="15" width="4" height="4"/><rect x="15" y="15" width="4" height="4"/><rect x="19" y="15" width="4" height="4"/><rect x="23" y="15" width="4" height="4"/><rect x="27" y="15" width="4" height="4"/><rect x="31" y="15" width="4" height="4"/><rect x="7" y="19" width="4" height="4"/><rect x="11" y="19" width="4" height="4"/><rect x="19" y="19" width="4" height="4"/><rect x="27" y="19" width="4" height="4"/><rect x="31" y="19" width="4" height="4"/><rect x="7" y="23" width="4" height="4"/><rect x="11" y="23" width="4" height="4"/><rect x="27" y="23" width="4" height="4"/><rect x="31" y="23" width="4" height="4"/><rect x="7" y="27" width="4" height="4"/><rect x="11" y="27" width="4" height="4"/><rect x="27" y="27" width="4" height="4"/><rect x="31" y="27" width="4" height="4"/><rect x="7" y="31" width="4" height="4"/><rect x="11" y="31" width="4" height="4"/><rect x="27" y="31" width="4" height="4"/><rect x="31" y="31" width="4" height="4"/></g></svg>